# xmcd
#
# Track frame offsets: 
#        150
#        9135
#        22050
#        33751
#        55030
#        66131
#        81648
#        101597
#        110377
#        118982
#        131370
#        143063
#        160385
#        169225
#        179805
#
# Disc length: 2570 seconds
#
# Revision: 0
# Processed by: cddbd v1.4PL0 Copyright (c) Steve Scherf et al.
# Submitted via: ExactAudioCopy v0.95a3
#
DISCID=cc0a080f
DTITLE=Johnny Cash - American Outtakes
DYEAR=1900
DGENRE=Country
TTITLE0=For Heaven's Sake
TTITLE1=I'm A Drifter
TTITLE2=I Witnessed A Crime (W/ Billy Gibbons)
TTITLE3=Banks Of the Ohio
TTITLE4=The Next Time I'm In Town
TTITLE5=Breaking Bread
TTITLE6=To Beat The Devil
TTITLE7=Friends In California
TTITLE8=Caretaker
TTITLE9=The Wonder Of You
TTITLE10=All I Want Is Your Heart
TTITLE11=Bury Me Not
TTITLE12=Old Chunk Of Coal
TTITLE13=Go On Blues
TTITLE14=If I Give My Soul
EXTD=
EXTT0=
EXTT1=
EXTT2=
EXTT3=
EXTT4=
EXTT5=
EXTT6=
EXTT7=
EXTT8=
EXTT9=
EXTT10=
EXTT11=
EXTT12=
EXTT13=
EXTT14=
PLAYORDER=
